<svg _ngcontent-mln-c87="" xmlns="http://www.w3.org/2000/svg" width="140.803" height="33.79" viewBox="0 0 140.803 33.79"><g _ngcontent-mln-c87="" transform="translate(-81.431 -33.782)"><path _ngcontent-mln-c87="" d="M201.226,57.022c.509-4.315,3.12-8.506,5.978-8.506,0,0,3.147,0,2.158,6.239a16.861,16.861,0,0,1-.879,3.381,2.872,2.872,0,0,0-2.2.8,1.983,1.983,0,0,0-.55,1.292,2.66,2.66,0,0,0,.4,1.718,4.326,4.326,0,0,1-2.872,1.484c-2.048,0-2.543-2.089-2.034-6.4M95.456,35.31a14.859,14.859,0,0,1-4.124,1.3,1.01,1.01,0,0,0-.728.659c-.179.522-.934,3.106-1.155,3.779a.965.965,0,0,1-.975.659c-.976-.068-4.7-.536-5.194-.577a.98.98,0,0,0-.935.522,11.545,11.545,0,0,0-.893,4.672.949.949,0,0,0,.77.783c.385.068,3.724.55,4.109.6a.959.959,0,0,1,.77,1.182c-2.886,11.268-2.472,18.63,7.326,18.63,8.135,0,14.291-10.169,17.149-19.857a22.155,22.155,0,0,1,2.048,1.979,1.714,1.714,0,0,1,.055,2.007c-2.062,3.023-9.235,14.662,1.182,15.872,3.793.425,7.022-1.828,9.674-5.1.22,2.158,1.443,4.934,6.321,4.934,4.191,0,7.022-3.2,8.781-6.225-.069.275-1.43,6.225,3.614,6.225,2.528,0,5.222-1.952,7.407-4.15-.165.715-.33,1.43-.495,2.172a1.331,1.331,0,0,0,.893,1.58,6.959,6.959,0,0,0,5.222-.138A1.333,1.333,0,0,0,157,65.9c.262-1.169.921-4.027,1.979-8h.041c.948,5.4,4.177,9.441,9.537,9.441,3.9,0,7.063-2.281,9.606-5.73.632,3.532,2.569,5.91,6.637,5.91,3.916,0,7.091-2.309,9.647-5.772.824,3.875,3.078,5.772,7.557,5.772a15.01,15.01,0,0,0,8.96-3.23c0-.013-.014-.013-.014-.027a7.04,7.04,0,0,1-.783-3.257,7.128,7.128,0,0,1,6.253-7.063h.042q.041-.495.041-.948c0-8.575-8.287-8.575-8.287-8.575-7.874,0-13.783,6.129-14.126,12.6-1.952,3.326-4.329,5.964-7.022,6.363-4.425.659-3.257-6.9-.893-14.759a.8.8,0,0,1,.756-.564,41.014,41.014,0,0,0,6.129-.453.8.8,0,0,0,.6-.481,6.9,6.9,0,0,0,.495-2.748.8.8,0,0,0-.838-.783c-1.429.1-2.941.124-4.438.11a.788.788,0,0,1-.742-1.059A44.383,44.383,0,0,1,189.9,38a1.067,1.067,0,0,0-.6-1.429,8.9,8.9,0,0,0-5.181-.426,1.073,1.073,0,0,0-.756.618c-.632,1.429-.536.783-2.267,6.06a.791.791,0,0,1-.811.55c-.811-.055-1.444-.11-1.855-.137a.776.776,0,0,0-.783.426,4.953,4.953,0,0,0-.4,2.9.773.773,0,0,0,.632.646c.33.069.646.124.961.179a.78.78,0,0,1,.633.976,61.141,61.141,0,0,0-1.539,9.29c-2.006,3.463-4.342,5.139-7.091,5.551-3.064.454-5.5-2.886-5.881-7.572V55.62a19.441,19.441,0,0,0,9.852-11.255,1.076,1.076,0,0,0-.591-1.319,7.625,7.625,0,0,0-5.345-.068,1.1,1.1,0,0,0-.729.8c-1.5,6.637-6.073,8.341-6.98,8.6-.069.027-.4.11-.673.178C161.608,48.1,165.167,38.621,165.4,38a1.128,1.128,0,0,0-.99-1.512,6.138,6.138,0,0,0-3.105,1.251,9.158,9.158,0,0,1-2.79,1.017.78.78,0,0,0-.591.536,3.613,3.613,0,0,0-.11.371c-.027.069-.041.124-.069.179a182.857,182.857,0,0,0-5.84,18.373c-1.938,2.858-4.013,4.7-5.552,4.7-2.583,0-.11-7.544.729-9.894a1,1,0,0,0-.4-1.168,7.092,7.092,0,0,0-4.865-.934,1.153,1.153,0,0,0-.88.7c-6.458,15.4-9.66,12.491-9.344,7.874.3-4.685,4.92-10.884,9.469-10.884a14.741,14.741,0,0,1,7.228,1.979,1.124,1.124,0,0,0,1.251-.1,5.736,5.736,0,0,0,1.223-1.306,1.261,1.261,0,0,0-.055-1.443c-.893-1.182-3.284-3.477-8.6-3.477-6.61,0-15.885,5.621-17.328,14.154-7.543,10.375-11.02,4.095-6.17-3.023,2.57-3.779,3.49-5.318-.893-8.781s-3.2-3.683-3.2-5.73-4.013-4-5.565.536a4.438,4.438,0,0,0,.852,4.466c-2.02,6.349-7.585,16.669-13.109,17.493-4.438.659-2.748-7.283-.4-15.144a.784.784,0,0,1,.756-.563,39.566,39.566,0,0,0,6.143-.454.766.766,0,0,0,.591-.467,14.9,14.9,0,0,0,.907-3.958.8.8,0,0,0-.838-.783c-1.429.082-2.941.11-4.439.11a.788.788,0,0,1-.742-1.059c.577-1.649,1.512-4.672,1.786-5.428a1.385,1.385,0,0,0-1.209-1.855l-.115,0a7.973,7.973,0,0,0-3.678,1.528" transform="translate(0 0)" fill="#3F0194"></path><path _ngcontent-mln-c87="" d="M1261.038,239.584a4.937,4.937,0,1,0,4.937-4.937,4.937,4.937,0,0,0-4.937,4.937" transform="translate(-1048.678 -178.57)" fill="#FF5250"></path></g></svg>